<?xml version="1.0" standalone="no"?>
<!DOCTYPE svg PUBLIC "-//W3C//DTD SVG 20010904//EN"
 "http://www.w3.org/TR/2001/REC-SVG-20010904/DTD/svg10.dtd">
<svg version="1.0" xmlns="http://www.w3.org/2000/svg"
 width="640.000000pt" height="640.000000pt" viewBox="0 0 640.000000 640.000000"
 preserveAspectRatio="xMidYMid meet">

<g transform="translate(0.000000,640.000000) scale(0.100000,-0.100000)"
fill="#000000" stroke="none">
<path d="M1630 5571 c-255 -54 -472 -204 -624 -431 -61 -91 -102 -182 -135
-300 l-26 -95 -3 -1409 c-2 -1225 0 -1421 13 -1498 74 -433 416 -770 840 -828
56 -8 545 -10 1635 -8 l1555 3 92 27 c101 30 240 96 318 152 70 51 179 160
231 232 59 83 129 233 157 336 l22 83 0 1470 0 1470 -28 90 c-111 355 -355
592 -725 703 -53 16 -173 17 -1647 19 -1500 2 -1595 1 -1675 -16z m2530 -492
c36 -5 82 -14 103 -20 l37 -10 0 -259 c0 -143 -1 -260 -3 -260 -1 0 -30 9 -62
21 -98 34 -202 50 -330 50 -183 0 -278 -32 -366 -122 -89 -92 -146 -249 -163
-451 l-5 -68 219 0 220 0 0 -240 0 -240 -220 0 -220 0 0 -1020 0 -1020 -295 0
-295 0 0 1020 0 1020 -240 0 -240 0 0 240 0 240 245 0 245 0 0 61 c0 34 7 108
16 166 57 388 237 653 539 794 105 49 277 94 411 108 109 11 303 6 404 -10z"/>
</g>
</svg>
